<?xml version="1.0" standalone="no"?><!DOCTYPE svg PUBLIC "-//W3C//DTD SVG 1.1//EN" "http://www.w3.org/Graphics/SVG/1.1/DTD/svg11.dtd"><svg t="1719977290368" class="icon" viewBox="0 0 1024 1024" version="1.1" xmlns="http://www.w3.org/2000/svg" p-id="14066" xmlns:xlink="http://www.w3.org/1999/xlink" width="800" height="800"><path d="M3.620108 142.702308m62.079007 0l226.174984 0q62.079007 0 62.079007 62.079008l0 0q0 62.079007-62.079007 62.079007l-226.174984 0q-62.079007 0-62.079007-62.079007l0 0q0-62.079007 62.079007-62.079008Z" fill="#FF5040" p-id="14067"></path><path d="M240.865614 29.614816m0 62.079008l0 226.174984q0 62.079007-62.079007 62.079007l0 0q-62.079007 0-62.079007-62.079007l0-226.174984q0-62.079007 62.079007-62.079008l0 0q62.079007 0 62.079007 62.079008Z" fill="#FF5040" p-id="14068"></path><path d="M670.046894 836.54849m62.079007 0l226.174984 0q62.079007 0 62.079007 62.079007l0 0q0 62.079007-62.079007 62.079008l-226.174984 0q-62.079007 0-62.079007-62.079008l0 0q0-62.079007 62.079007-62.079007Z" fill="#D2E1FF" p-id="14069"></path><path d="M1000.936315 138.454247m-69.231607 76.889489l-658.903609 731.786595q-69.231606 76.889489-146.121095 7.657882l0.034713 0.031256q-76.889489-69.231606-7.657882-146.121095l658.903609-731.786595q69.231606-76.889489 146.121095-7.657882l-0.034713-0.031256q76.889489 69.231606 7.657882 146.121095Z" fill="#3375FF" p-id="14070"></path></svg>